REM DIRINDEX 1\2,1\3,1\4,1\5\6,1\5\7,1\8
REM DIRNAME cjc115,folder01,folder02,folder03,folder04,folder05,folder06,folder07
TITLE ""
FILE "058 【058】Unit4 (0649 parallel_0660 ascent).mp3" MP3
  TRACK 01 AUDIO
    TITLE "0:"
    INDEX 01 00:00:00
  TRACK 02 AUDIO
    TITLE "8:cjc115_2289"
    INDEX 01 00:00:07
  TRACK 03 AUDIO
    TITLE "0:"
    INDEX 01 00:01:42
  TRACK 04 AUDIO
    TITLE "2:cjc115_2290"
    INDEX 01 00:02:14
  TRACK 05 AUDIO
    TITLE "0:"
    INDEX 01 00:03:35
  TRACK 06 AUDIO
    TITLE "3:cjc115_2291"
    INDEX 01 00:03:43
  TRACK 07 AUDIO
    TITLE "0:"
    INDEX 01 00:06:02
  TRACK 08 AUDIO
    TITLE "4:cjc115_2292"
    INDEX 01 00:06:12
  TRACK 09 AUDIO
    TITLE "0:"
    INDEX 01 00:09:55
  TRACK 10 AUDIO
    TITLE "2:cjc115_2293"
    INDEX 01 00:10:65
  TRACK 11 AUDIO
    TITLE "0:"
    INDEX 01 00:12:03
  TRACK 12 AUDIO
    TITLE "3:cjc115_2294"
    INDEX 01 00:12:12
  TRACK 13 AUDIO
    TITLE "0:"
    INDEX 01 00:14:58
  TRACK 14 AUDIO
    TITLE "4:cjc115_2295"
    INDEX 01 00:14:66
  TRACK 15 AUDIO
    TITLE "0:"
    INDEX 01 00:19:54
  TRACK 16 AUDIO
    TITLE "2:cjc115_2296"
    INDEX 01 00:20:63
  TRACK 17 AUDIO
    TITLE "0:"
    INDEX 01 00:22:11
  TRACK 18 AUDIO
    TITLE "3:cjc115_2297"
    INDEX 01 00:22:15
  TRACK 19 AUDIO
    TITLE "0:"
    INDEX 01 00:24:41
  TRACK 20 AUDIO
    TITLE "4:cjc115_2298"
    INDEX 01 00:24:51
  TRACK 21 AUDIO
    TITLE "0:"
    INDEX 01 00:28:00
  TRACK 22 AUDIO
    TITLE "2:cjc115_2299"
    INDEX 01 00:29:11
  TRACK 23 AUDIO
    TITLE "0:"
    INDEX 01 00:30:24
  TRACK 24 AUDIO
    TITLE "3:cjc115_2300"
    INDEX 01 00:30:30
  TRACK 25 AUDIO
    TITLE "0:"
    INDEX 01 00:32:54
  TRACK 26 AUDIO
    TITLE "4:cjc115_2301"
    INDEX 01 00:32:56
  TRACK 27 AUDIO
    TITLE "0:"
    INDEX 01 00:36:58
  TRACK 28 AUDIO
    TITLE "2:cjc115_2302"
    INDEX 01 00:37:65
  TRACK 29 AUDIO
    TITLE "0:"
    INDEX 01 00:39:11
  TRACK 30 AUDIO
    TITLE "3:cjc115_2303"
    INDEX 01 00:39:19
  TRACK 31 AUDIO
    TITLE "0:"
    INDEX 01 00:41:55
  TRACK 32 AUDIO
    TITLE "4:cjc115_2304"
    INDEX 01 00:41:63
  TRACK 33 AUDIO
    TITLE "0:"
    INDEX 01 00:45:69
  TRACK 34 AUDIO
    TITLE "2:cjc115_2305"
    INDEX 01 00:47:01
  TRACK 35 AUDIO
    TITLE "0:"
    INDEX 01 00:48:28
  TRACK 36 AUDIO
    TITLE "3:cjc115_2306"
    INDEX 01 00:48:30
  TRACK 37 AUDIO
    TITLE "0:"
    INDEX 01 00:51:52
  TRACK 38 AUDIO
    TITLE "4:cjc115_2307"
    INDEX 01 00:51:63
  TRACK 39 AUDIO
    TITLE "0:"
    INDEX 01 00:55:40
  TRACK 40 AUDIO
    TITLE "2:cjc115_2308"
    INDEX 01 00:56:51
  TRACK 41 AUDIO
    TITLE "0:"
    INDEX 01 00:58:05
  TRACK 42 AUDIO
    TITLE "3:cjc115_2309"
    INDEX 01 00:58:11
  TRACK 43 AUDIO
    TITLE "0:"
    INDEX 01 00:59:43
  TRACK 44 AUDIO
    TITLE "4:cjc115_2310"
    INDEX 01 00:59:53
  TRACK 45 AUDIO
    TITLE "0:"
    INDEX 01 01:03:10
  TRACK 46 AUDIO
    TITLE "2:cjc115_2311"
    INDEX 01 01:04:19
  TRACK 47 AUDIO
    TITLE "0:"
    INDEX 01 01:05:58
  TRACK 48 AUDIO
    TITLE "3:cjc115_2312"
    INDEX 01 01:05:69
  TRACK 49 AUDIO
    TITLE "0:"
    INDEX 01 01:08:38
  TRACK 50 AUDIO
    TITLE "4:cjc115_2313"
    INDEX 01 01:08:48
  TRACK 51 AUDIO
    TITLE "0:"
    INDEX 01 01:12:54
  TRACK 52 AUDIO
    TITLE "2:cjc115_2314"
    INDEX 01 01:13:63
  TRACK 53 AUDIO
    TITLE "0:"
    INDEX 01 01:15:23
  TRACK 54 AUDIO
    TITLE "3:cjc115_2315"
    INDEX 01 01:15:31
  TRACK 55 AUDIO
    TITLE "0:"
    INDEX 01 01:17:18
  TRACK 56 AUDIO
    TITLE "4:cjc115_2316"
    INDEX 01 01:17:28
  TRACK 57 AUDIO
    TITLE "0:"
    INDEX 01 01:23:22
  TRACK 58 AUDIO
    TITLE "2:cjc115_2317"
    INDEX 01 01:24:32
  TRACK 59 AUDIO
    TITLE "0:"
    INDEX 01 01:25:37
  TRACK 60 AUDIO
    TITLE "3:cjc115_2318"
    INDEX 01 01:25:45
  TRACK 61 AUDIO
    TITLE "0:"
    INDEX 01 01:28:00
  TRACK 62 AUDIO
    TITLE "4:cjc115_2319"
    INDEX 01 01:28:12
  TRACK 63 AUDIO
    TITLE "0:"
    INDEX 01 01:32:59
  TRACK 64 AUDIO
    TITLE "2:cjc115_2320"
    INDEX 01 01:33:68
  TRACK 65 AUDIO
    TITLE "0:"
    INDEX 01 01:35:08
  TRACK 66 AUDIO
    TITLE "3:cjc115_2321"
    INDEX 01 01:35:18
  TRACK 67 AUDIO
    TITLE "0:"
    INDEX 01 01:36:43
  TRACK 68 AUDIO
    TITLE "4:cjc115_2322"
    INDEX 01 01:36:52
  TRACK 69 AUDIO
    TITLE "0:"
    INDEX 01 01:42:26
  TRACK 70 AUDIO
    TITLE "2:cjc115_2323"
    INDEX 01 01:43:37
  TRACK 71 AUDIO
    TITLE "0:"
    INDEX 01 01:44:46
  TRACK 72 AUDIO
    TITLE "3:cjc115_2324"
    INDEX 01 01:44:56
  TRACK 73 AUDIO
    TITLE "0:"
    INDEX 01 01:47:01
  TRACK 74 AUDIO
    TITLE "4:cjc115_2325"
    INDEX 01 01:47:11
  TRACK 75 AUDIO
    TITLE "0:"
    INDEX 01 01:51:58
